<?xml version="1.0" encoding="utf-8"?>
<!-- Generator: Adobe Illustrator 24.1.2, SVG Export Plug-In . SVG Version: 6.00 Build 0)  -->
<svg version="1.1" id="Capa_1" xmlns="http://www.w3.org/2000/svg" xmlns:xlink="http://www.w3.org/1999/xlink" x="0px" y="0px"
	 viewBox="0 0 500 500" style="enable-background:new 0 0 500 500;" xml:space="preserve">
<style type="text/css">
	.st0{display:none;}
	.st1{display:inline;fill:url(#SVGID_1_);}
	.st2{display:inline;}
	.st3{fill:url(#SVGID_2_);}
	.st4{fill:url(#SVGID_3_);}
	.st5{fill:#FFFFFF;}
</style>
<g class="st0">
	<linearGradient id="SVGID_1_" gradientUnits="userSpaceOnUse" x1="130.645" y1="342.4312" x2="322.1848" y2="195.0929">
		<stop  offset="0" style="stop-color:#4C44EA"/>
		<stop  offset="1" style="stop-color:#45F2FF"/>
	</linearGradient>
	<path class="st1" d="M248.5,166.9l-81.9,81.9c-0.9,0.9-0.9,2.5,0,3.4l81.9,81.9c0.9,0.9,2.5,0.9,3.4,0l81.9-81.9
		c0.9-0.9,0.9-2.5,0-3.4l-81.9-81.9C250.9,166,249.4,166,248.5,166.9z"/>
	<g class="st2">
		<linearGradient id="SVGID_2_" gradientUnits="userSpaceOnUse" x1="94.5261" y1="295.4767" x2="286.0659" y2="148.1383">
			<stop  offset="0" style="stop-color:#4C44EA"/>
			<stop  offset="1" style="stop-color:#45F2FF"/>
		</linearGradient>
		<path class="st3" d="M93.5,248.7l101.4-101.4c0.9-0.9,0.9-2.5,0-3.4l-40.2-40.2c-0.9-0.9-2.5-0.9-3.4,0l-99.7,99.7
			c-2.2,2.2-3.5,5.2-3.5,8.4v77.9c0,1.6,2,2.5,3.2,1.3L80,262.3L68.4,306c-1.1,4.1,0.1,8.4,3.1,11.4l79.9,79.9
			c0.9,0.9,2.5,0.9,3.4,0l40.2-40.2c0.9-0.9,0.9-2.5,0-3.4L93.5,252.2C92.5,251.2,92.5,249.7,93.5,248.7z"/>
		<linearGradient id="SVGID_3_" gradientUnits="userSpaceOnUse" x1="166.7639" y1="389.3858" x2="358.3037" y2="242.0474">
			<stop  offset="0" style="stop-color:#4C44EA"/>
			<stop  offset="1" style="stop-color:#45F2FF"/>
		</linearGradient>
		<path class="st4" d="M406.8,252.3L305.5,353.6c-0.9,0.9-0.9,2.5,0,3.4l40.2,40.2c0.9,0.9,2.5,0.9,3.4,0l99.7-99.7
			c2.2-2.2,3.5-5.2,3.5-8.4v-77.9c0-1.6-2-2.5-3.2-1.3l-28.7,28.7L432,195c1.1-4.1-0.1-8.4-3.1-11.4L349,103.7
			c-0.9-0.9-2.5-0.9-3.4,0l-40.2,40.2c-0.9,0.9-0.9,2.5,0,3.4l101.4,101.4C407.8,249.7,407.8,251.3,406.8,252.3z"/>
	</g>
</g>
<g>
	<path class="st5" d="M248,166.4L166.4,248c-0.9,0.9-0.9,2.5,0,3.4L248,333c0.9,0.9,2.5,0.9,3.4,0l81.6-81.6c0.9-0.9,0.9-2.5,0-3.4
		l-81.6-81.6C250.4,165.5,248.9,165.5,248,166.4z"/>
	<g>
		<path class="st5" d="M93.6,247.9l101-101c0.9-0.9,0.9-2.5,0-3.4l-40-40c-0.9-0.9-2.5-0.9-3.4,0l-99.3,99.3
			c-2.2,2.2-3.5,5.2-3.5,8.4v77.6c0,1.6,2,2.5,3.1,1.3l28.6-28.6L68.6,305c-1.1,4.1,0.1,8.4,3.1,11.4l79.6,79.6
			c0.9,0.9,2.5,0.9,3.4,0l40-40c0.9-0.9,0.9-2.5,0-3.4L93.6,251.4C92.6,250.4,92.6,248.9,93.6,247.9z"/>
		<path class="st5" d="M405.8,251.5l-101,101c-0.9,0.9-0.9,2.5,0,3.4l40,40c0.9,0.9,2.5,0.9,3.4,0l99.3-99.3
			c2.2-2.2,3.5-5.2,3.5-8.4v-77.6c0-1.6-2-2.5-3.1-1.3L419.3,238l11.5-43.6c1.1-4.1-0.1-8.4-3.1-11.4l-79.6-79.6
			c-0.9-0.9-2.5-0.9-3.4,0l-40,40c-0.9,0.9-0.9,2.5,0,3.4L405.8,248C406.7,248.9,406.7,250.5,405.8,251.5z"/>
	</g>
</g>
</svg>
